<svg id="SvgjsSvg1000" xmlns="http://www.w3.org/2000/svg" version="1.1" xmlns:xlink="http://www.w3.org/1999/xlink" xmlns:svgjs="http://svgjs.com/svgjs" width="967" height="738"><defs id="SvgjsDefs1001"><marker id="SvgjsMarker1015" markerWidth="14" markerHeight="10" refX="10" refY="5" viewBox="0 0 14 10" orient="auto" markerUnits="userSpaceOnUse" stroke-dasharray="0,0"><path id="SvgjsPath1016" d="M0 0L14 5L0 10L0 0 " fill="#323232" stroke="#323232" stroke-width="1"></path></marker><marker id="SvgjsMarker1023" markerWidth="14" markerHeight="10" refX="10" refY="5" viewBox="0 0 14 10" orient="auto" markerUnits="userSpaceOnUse" stroke-dasharray="0,0"><path id="SvgjsPath1024" d="M0 0L14 5L0 10L0 0 " fill="#323232" stroke="#323232" stroke-width="1"></path></marker><marker id="SvgjsMarker1043" markerWidth="14" markerHeight="10" refX="10" refY="5" viewBox="0 0 14 10" orient="auto" markerUnits="userSpaceOnUse" stroke-dasharray="0,0"><path id="SvgjsPath1044" d="M0 0L14 5L0 10L0 0 " fill="#323232" stroke="#323232" stroke-width="1"></path></marker><marker id="SvgjsMarker1051" markerWidth="14" markerHeight="10" refX="10" refY="5" viewBox="0 0 14 10" orient="auto" markerUnits="userSpaceOnUse" stroke-dasharray="0,0"><path id="SvgjsPath1052" d="M0 0L14 5L0 10L0 0 " fill="#323232" stroke="#323232" stroke-width="1"></path></marker><marker id="SvgjsMarker1065" markerWidth="14" markerHeight="10" refX="10" refY="5" viewBox="0 0 14 10" orient="auto" markerUnits="userSpaceOnUse" stroke-dasharray="0,0"><path id="SvgjsPath1066" d="M0 0L14 5L0 10L0 0 " fill="#323232" stroke="#323232" stroke-width="1"></path></marker><marker id="SvgjsMarker1073" markerWidth="14" markerHeight="10" refX="10" refY="5" viewBox="0 0 14 10" orient="auto" markerUnits="userSpaceOnUse" stroke-dasharray="0,0"><path id="SvgjsPath1074" d="M0 0L14 5L0 10L0 0 " fill="#323232" stroke="#323232" stroke-width="1"></path></marker><marker id="SvgjsMarker1081" markerWidth="14" markerHeight="10" refX="10" refY="5" viewBox="0 0 14 10" orient="auto" markerUnits="userSpaceOnUse" stroke-dasharray="0,0"><path id="SvgjsPath1082" d="M0 0L14 5L0 10L0 0 " fill="#323232" stroke="#323232" stroke-width="1"></path></marker><marker id="SvgjsMarker1095" markerWidth="14" markerHeight="10" refX="10" refY="5" viewBox="0 0 14 10" orient="auto" markerUnits="userSpaceOnUse" stroke-dasharray="0,0"><path id="SvgjsPath1096" d="M0 0L14 5L0 10L0 0 " fill="#323232" stroke="#323232" stroke-width="1"></path></marker><marker id="SvgjsMarker1103" markerWidth="14" markerHeight="10" refX="10" refY="5" viewBox="0 0 14 10" orient="auto" markerUnits="userSpaceOnUse" stroke-dasharray="0,0"><path id="SvgjsPath1104" d="M0 0L14 5L0 10L0 0 " fill="#323232" stroke="#323232" stroke-width="1"></path></marker></defs><g id="SvgjsG1007" transform="translate(118,25)"><path id="SvgjsPath1008" d="M0 4Q0 0 4 0L113 0Q117 0 117 4L117 82Q117 86 113 86L4 86Q0 86 0 82Z " stroke="rgba(50,50,50,1)" stroke-width="2" fill-opacity="1" fill="#ffeb3b"></path><g id="SvgjsG1009"><text id="SvgjsText1010" font-family="微软雅黑" text-anchor="middle" font-size="18px" width="97px" fill="#323232" font-weight="400" align="middle" lineHeight="125%" font-style="" opacity="1" y="27.75" transform="rotate(0)"><tspan id="SvgjsTspan1011" dy="22" x="58.5"><tspan id="SvgjsTspan1012" style="text-decoration:;">Grami</tspan></tspan></text></g></g><g id="SvgjsG1013"><path id="SvgjsPath1014" d="M25 68L71.5 68L71.5 68L114.4 68 " stroke="#323232" stroke-width="2" fill="none" marker-end="url(#SvgjsMarker1015)"></path><rect id="SvgjsRect1017" width="40" height="16" x="49.7" y="60" fill="#ffffff"></rect><text id="SvgjsText1018" font-family="微软雅黑" text-anchor="middle" font-size="13px" width="40px" fill="#323232" font-weight="400" align="top" lineHeight="16px" font-style="" opacity="1" y="57.375" transform="rotate(0)"><tspan id="SvgjsTspan1019" dy="16" x="69.7"><tspan id="SvgjsTspan1020" style="text-decoration:;">dblp.lg</tspan></tspan></text></g><g id="SvgjsG1021"><path id="SvgjsPath1022" d="M236 68L281.5 68L281.5 68L328 68 " stroke="#323232" stroke-width="2" fill="none" marker-end="url(#SvgjsMarker1023)"></path><rect id="SvgjsRect1025" width="21" height="16" x="271.5" y="60" fill="#ffffff"></rect><text id="SvgjsText1026" font-family="微软雅黑" text-anchor="middle" font-size="13px" width="21px" fill="#323232" font-weight="400" align="top" lineHeight="16px" font-style="" opacity="1" y="57.375" transform="rotate(0)"><tspan id="SvgjsTspan1027" dy="16" x="282"><tspan id="SvgjsTspan1028" style="text-decoration:;">t1.q</tspan></tspan></text></g><g id="SvgjsG1029" transform="translate(333,25)"><path id="SvgjsPath1030" d="M0 4Q0 0 4 0L116 0Q120 0 120 4L120 82Q120 86 116 86L4 86Q0 86 0 82Z " stroke="rgba(50,50,50,1)" stroke-width="2" fill-opacity="1" fill="#fbc02d"></path><g id="SvgjsG1031"><text id="SvgjsText1032" font-family="微软雅黑" text-anchor="middle" font-size="18px" width="100px" fill="#323232" font-weight="400" align="middle" lineHeight="125%" font-style="" opacity="1" y="27.75" transform="rotate(0)"><tspan id="SvgjsTspan1033" dy="22" x="60"><tspan id="SvgjsTspan1034" style="text-decoration:;">Prune</tspan></tspan></text></g></g><g id="SvgjsG1035" transform="translate(229,180)"><path id="SvgjsPath1036" d="M0 4Q0 0 4 0L195 0Q199 0 199 4L199 139Q199 143 195 143L4 143Q0 143 0 139Z " stroke="rgba(50,50,50,1)" stroke-width="2" fill-opacity="1" fill="#64b5f6"></path><g id="SvgjsG1037"><text id="SvgjsText1038" font-family="微软雅黑" text-anchor="middle" font-size="18px" width="179px" fill="#323232" font-weight="400" align="middle" lineHeight="125%" font-style="" opacity="1" y="56.25" transform="rotate(0)"><tspan id="SvgjsTspan1039" dy="22" x="99.5"><tspan id="SvgjsTspan1040" style="text-decoration:;">SymISO</tspan></tspan></text></g></g><g id="SvgjsG1041"><path id="SvgjsPath1042" d="M454 68L483 68L483 150L328.5 150L328.5 176.4 " stroke="#323232" stroke-width="2" fill="none" marker-end="url(#SvgjsMarker1043)"></path><rect id="SvgjsRect1045" width="23" height="16" x="436.55" y="142" fill="#ffffff"></rect><text id="SvgjsText1046" font-family="微软雅黑" text-anchor="middle" font-size="13px" width="23px" fill="#323232" font-weight="400" align="top" lineHeight="16px" font-style="" opacity="1" y="139.375" transform="rotate(0)"><tspan id="SvgjsTspan1047" dy="16" x="448.05"><tspan id="SvgjsTspan1048" style="text-decoration:;">t2.q</tspan></tspan></text></g><g id="SvgjsG1049"><path id="SvgjsPath1050" d="M52 251.5L140.5 251.5L140.5 251.5L225.4 251.5 " stroke="#323232" stroke-width="2" fill="none" marker-end="url(#SvgjsMarker1051)"></path><rect id="SvgjsRect1053" width="40" height="16" x="118.69999999999999" y="243.5" fill="#ffffff"></rect><text id="SvgjsText1054" font-family="微软雅黑" text-anchor="middle" font-size="13px" width="40px" fill="#323232" font-weight="400" align="top" lineHeight="16px" font-style="" opacity="1" y="240.875" transform="rotate(0)"><tspan id="SvgjsTspan1055" dy="16" x="138.7"><tspan id="SvgjsTspan1056" style="text-decoration:;">dblp.lg</tspan></tspan></text></g><g id="SvgjsG1057" transform="translate(636,305)"><path id="SvgjsPath1058" d="M0 4Q0 0 4 0L142 0Q146 0 146 4L146 277Q146 281 142 281L4 281Q0 281 0 277Z " stroke="rgba(50,50,50,1)" stroke-width="2" fill-opacity="1" fill="#f57c00"></path><g id="SvgjsG1059"><text id="SvgjsText1060" font-family="微软雅黑" text-anchor="middle" font-size="18px" width="126px" fill="#323232" font-weight="400" align="middle" lineHeight="125%" font-style="" opacity="1" y="125.25" transform="rotate(0)"><tspan id="SvgjsTspan1061" dy="22" x="73"><tspan id="SvgjsTspan1062" style="text-decoration:;">DataProcess</tspan></tspan></text></g></g><g id="SvgjsG1063"><path id="SvgjsPath1064" d="M328.5 324L328.5 445.5L632.4 445.5 " stroke="#323232" stroke-width="2" fill="none" marker-end="url(#SvgjsMarker1065)"></path><rect id="SvgjsRect1067" width="184" height="16" x="327.7" y="437.5" fill="#ffffff"></rect><text id="SvgjsText1068" font-family="微软雅黑" text-anchor="middle" font-size="13px" width="184px" fill="#323232" font-weight="400" align="top" lineHeight="16px" font-style="" opacity="1" y="434.875" transform="rotate(0)"><tspan id="SvgjsTspan1069" dy="16" x="419.7"><tspan id="SvgjsTspan1070" style="text-decoration:;">Instances for every metagraph</tspan></tspan></text></g><g id="SvgjsG1071"><path id="SvgjsPath1072" d="M429 251.5L709 251.5L709 299.4753424657534 " stroke="#323232" stroke-width="2" fill="none" marker-end="url(#SvgjsMarker1073)"></path><rect id="SvgjsRect1075" width="31" height="16" x="577.4876712328767" y="243.5" fill="#ffffff"></rect><text id="SvgjsText1076" font-family="微软雅黑" text-anchor="middle" font-size="13px" width="31px" fill="#323232" font-weight="400" align="top" lineHeight="16px" font-style="" opacity="1" y="240.875" transform="rotate(0)"><tspan id="SvgjsTspan1077" dy="16" x="592.9876712328767"><tspan id="SvgjsTspan1078" style="text-decoration:;">t.gdb</tspan></tspan></text></g><g id="SvgjsG1079"><path id="SvgjsPath1080" d="M783 445.5L862 445.5L862 445.5L942 445.5 " stroke="#323232" stroke-width="2" fill="none" marker-end="url(#SvgjsMarker1081)"></path><rect id="SvgjsRect1083" width="38" height="16" x="843.5000000000001" y="437.5" fill="#ffffff"></rect><text id="SvgjsText1084" font-family="微软雅黑" text-anchor="middle" font-size="13px" width="38px" fill="#323232" font-weight="400" align="top" lineHeight="16px" font-style="" opacity="1" y="434.875" transform="rotate(0)"><tspan id="SvgjsTspan1085" dy="16" x="862.5000000000001"><tspan id="SvgjsTspan1086" style="text-decoration:;">res.txt</tspan></tspan></text></g><g id="SvgjsG1087" transform="translate(229,516)"><path id="SvgjsPath1088" d="M0 4Q0 0 4 0L195 0Q199 0 199 4L199 193Q199 197 195 197L4 197Q0 197 0 193Z " stroke="rgba(50,50,50,1)" stroke-width="2" fill-opacity="1" fill="#ba68c8"></path><g id="SvgjsG1089"><text id="SvgjsText1090" font-family="微软雅黑" text-anchor="middle" font-size="18px" width="179px" fill="#323232" font-weight="400" align="middle" lineHeight="125%" font-style="" opacity="1" y="83.25" transform="rotate(0)"><tspan id="SvgjsTspan1091" dy="22" x="99.5"><tspan id="SvgjsTspan1092" style="text-decoration:;">RandomWalkSample</tspan></tspan></text></g></g><g id="SvgjsG1093"><path id="SvgjsPath1094" d="M66 614.5L147.5 614.5L147.5 614.5L225.4 614.5 " stroke="#323232" stroke-width="2" fill="none" marker-end="url(#SvgjsMarker1095)"></path><rect id="SvgjsRect1097" width="40" height="16" x="125.70000000000002" y="606.5" fill="#ffffff"></rect><text id="SvgjsText1098" font-family="微软雅黑" text-anchor="middle" font-size="13px" width="40px" fill="#323232" font-weight="400" align="top" lineHeight="16px" font-style="" opacity="1" y="603.875" transform="rotate(0)"><tspan id="SvgjsTspan1099" dy="16" x="145.70000000000002"><tspan id="SvgjsTspan1100" style="text-decoration:;">dblp.lg</tspan></tspan></text></g><g id="SvgjsG1101"><path id="SvgjsPath1102" d="M429 614.5L709 614.5L709 589.6 " stroke="#323232" stroke-width="2" fill="none" marker-end="url(#SvgjsMarker1103)"></path><rect id="SvgjsRect1105" width="82" height="16" x="540.45" y="606.5" fill="#ffffff"></rect><text id="SvgjsText1106" font-family="微软雅黑" text-anchor="middle" font-size="13px" width="82px" fill="#323232" font-weight="400" align="top" lineHeight="16px" font-style="" opacity="1" y="603.875" transform="rotate(0)"><tspan id="SvgjsTspan1107" dy="16" x="581.45"><tspan id="SvgjsTspan1108" style="text-decoration:;">pair_catch.txt</tspan></tspan></text></g></svg>