<svg id="SvgjsSvg1109" xmlns="http://www.w3.org/2000/svg" version="1.1" xmlns:xlink="http://www.w3.org/1999/xlink" xmlns:svgjs="http://svgjs.com/svgjs" width="967" height="738"><defs id="SvgjsDefs1110"><marker id="SvgjsMarker1119" markerWidth="14" markerHeight="10" refX="10" refY="5" viewBox="0 0 14 10" orient="auto" markerUnits="userSpaceOnUse" stroke-dasharray="0,0"><path id="SvgjsPath1120" d="M0 0L14 5L0 10L0 0 " fill="#323232" stroke="#323232" stroke-width="1"></path></marker><marker id="SvgjsMarker1127" markerWidth="14" markerHeight="10" refX="10" refY="5" viewBox="0 0 14 10" orient="auto" markerUnits="userSpaceOnUse" stroke-dasharray="0,0"><path id="SvgjsPath1128" d="M0 0L14 5L0 10L0 0 " fill="#323232" stroke="#323232" stroke-width="1"></path></marker><marker id="SvgjsMarker1147" markerWidth="14" markerHeight="10" refX="10" refY="5" viewBox="0 0 14 10" orient="auto" markerUnits="userSpaceOnUse" stroke-dasharray="0,0"><path id="SvgjsPath1148" d="M0 0L14 5L0 10L0 0 " fill="#323232" stroke="#323232" stroke-width="1"></path></marker><marker id="SvgjsMarker1155" markerWidth="14" markerHeight="10" refX="10" refY="5" viewBox="0 0 14 10" orient="auto" markerUnits="userSpaceOnUse" stroke-dasharray="0,0"><path id="SvgjsPath1156" d="M0 0L14 5L0 10L0 0 " fill="#323232" stroke="#323232" stroke-width="1"></path></marker><marker id="SvgjsMarker1169" markerWidth="14" markerHeight="10" refX="10" refY="5" viewBox="0 0 14 10" orient="auto" markerUnits="userSpaceOnUse" stroke-dasharray="0,0"><path id="SvgjsPath1170" d="M0 0L14 5L0 10L0 0 " fill="#323232" stroke="#323232" stroke-width="1"></path></marker><marker id="SvgjsMarker1177" markerWidth="14" markerHeight="10" refX="10" refY="5" viewBox="0 0 14 10" orient="auto" markerUnits="userSpaceOnUse" stroke-dasharray="0,0"><path id="SvgjsPath1178" d="M0 0L14 5L0 10L0 0 " fill="#323232" stroke="#323232" stroke-width="1"></path></marker><marker id="SvgjsMarker1185" markerWidth="14" markerHeight="10" refX="10" refY="5" viewBox="0 0 14 10" orient="auto" markerUnits="userSpaceOnUse" stroke-dasharray="0,0"><path id="SvgjsPath1186" d="M0 0L14 5L0 10L0 0 " fill="#323232" stroke="#323232" stroke-width="1"></path></marker><marker id="SvgjsMarker1199" markerWidth="14" markerHeight="10" refX="10" refY="5" viewBox="0 0 14 10" orient="auto" markerUnits="userSpaceOnUse" stroke-dasharray="0,0"><path id="SvgjsPath1200" d="M0 0L14 5L0 10L0 0 " fill="#323232" stroke="#323232" stroke-width="1"></path></marker><marker id="SvgjsMarker1207" markerWidth="14" markerHeight="10" refX="10" refY="5" viewBox="0 0 14 10" orient="auto" markerUnits="userSpaceOnUse" stroke-dasharray="0,0"><path id="SvgjsPath1208" d="M0 0L14 5L0 10L0 0 " fill="#323232" stroke="#323232" stroke-width="1"></path></marker></defs><g id="SvgjsG1111" transform="translate(118,25)"><path id="SvgjsPath1112" d="M0 4Q0 0 4 0L113 0Q117 0 117 4L117 82Q117 86 113 86L4 86Q0 86 0 82Z " stroke="rgba(50,50,50,1)" stroke-width="2" fill-opacity="1" fill="#ffeb3b"></path><g id="SvgjsG1113"><text id="SvgjsText1114" font-family="微软雅黑" text-anchor="middle" font-size="18px" width="97px" fill="#323232" font-weight="400" align="middle" lineHeight="125%" font-style="" opacity="1" y="27.75" transform="rotate(0)"><tspan id="SvgjsTspan1115" dy="22" x="58.5"><tspan id="SvgjsTspan1116" style="text-decoration:;">Grami</tspan></tspan></text></g></g><g id="SvgjsG1117"><path id="SvgjsPath1118" d="M25 68L71.5 68L71.5 68L114.4 68 " stroke="#323232" stroke-width="2" fill="none" marker-end="url(#SvgjsMarker1119)"></path><rect id="SvgjsRect1121" width="40" height="16" x="49.7" y="60" fill="#ffffff"></rect><text id="SvgjsText1122" font-family="微软雅黑" text-anchor="middle" font-size="13px" width="40px" fill="#323232" font-weight="400" align="top" lineHeight="16px" font-style="" opacity="1" y="57.375" transform="rotate(0)"><tspan id="SvgjsTspan1123" dy="16" x="69.7"><tspan id="SvgjsTspan1124" style="text-decoration:;">dblp.lg</tspan></tspan></text></g><g id="SvgjsG1125"><path id="SvgjsPath1126" d="M236 68L281.5 68L281.5 68L328 68 " stroke="#323232" stroke-width="2" fill="none" marker-end="url(#SvgjsMarker1127)"></path><rect id="SvgjsRect1129" width="21" height="16" x="271.5" y="60" fill="#ffffff"></rect><text id="SvgjsText1130" font-family="微软雅黑" text-anchor="middle" font-size="13px" width="21px" fill="#323232" font-weight="400" align="top" lineHeight="16px" font-style="" opacity="1" y="57.375" transform="rotate(0)"><tspan id="SvgjsTspan1131" dy="16" x="282"><tspan id="SvgjsTspan1132" style="text-decoration:;">t1.q</tspan></tspan></text></g><g id="SvgjsG1133" transform="translate(333,25)"><path id="SvgjsPath1134" d="M0 4Q0 0 4 0L116 0Q120 0 120 4L120 82Q120 86 116 86L4 86Q0 86 0 82Z " stroke="rgba(50,50,50,1)" stroke-width="2" fill-opacity="1" fill="#fbc02d"></path><g id="SvgjsG1135"><text id="SvgjsText1136" font-family="微软雅黑" text-anchor="middle" font-size="18px" width="100px" fill="#323232" font-weight="400" align="middle" lineHeight="125%" font-style="" opacity="1" y="27.75" transform="rotate(0)"><tspan id="SvgjsTspan1137" dy="22" x="60"><tspan id="SvgjsTspan1138" style="text-decoration:;">Prune</tspan></tspan></text></g></g><g id="SvgjsG1139" transform="translate(229,180)"><path id="SvgjsPath1140" d="M0 4Q0 0 4 0L195 0Q199 0 199 4L199 139Q199 143 195 143L4 143Q0 143 0 139Z " stroke="rgba(50,50,50,1)" stroke-width="2" fill-opacity="1" fill="#64b5f6"></path><g id="SvgjsG1141"><text id="SvgjsText1142" font-family="微软雅黑" text-anchor="middle" font-size="18px" width="179px" fill="#323232" font-weight="400" align="middle" lineHeight="125%" font-style="" opacity="1" y="56.25" transform="rotate(0)"><tspan id="SvgjsTspan1143" dy="22" x="99.5"><tspan id="SvgjsTspan1144" style="text-decoration:;">SymISO</tspan></tspan></text></g></g><g id="SvgjsG1145"><path id="SvgjsPath1146" d="M454 68L483 68L483 150L328.5 150L328.5 176.4 " stroke="#323232" stroke-width="2" fill="none" marker-end="url(#SvgjsMarker1147)"></path><rect id="SvgjsRect1149" width="23" height="16" x="436.55" y="142" fill="#ffffff"></rect><text id="SvgjsText1150" font-family="微软雅黑" text-anchor="middle" font-size="13px" width="23px" fill="#323232" font-weight="400" align="top" lineHeight="16px" font-style="" opacity="1" y="139.375" transform="rotate(0)"><tspan id="SvgjsTspan1151" dy="16" x="448.05"><tspan id="SvgjsTspan1152" style="text-decoration:;">t2.q</tspan></tspan></text></g><g id="SvgjsG1153"><path id="SvgjsPath1154" d="M52 251.5L140.5 251.5L140.5 251.5L225.4 251.5 " stroke="#323232" stroke-width="2" fill="none" marker-end="url(#SvgjsMarker1155)"></path><rect id="SvgjsRect1157" width="40" height="16" x="118.69999999999999" y="243.5" fill="#ffffff"></rect><text id="SvgjsText1158" font-family="微软雅黑" text-anchor="middle" font-size="13px" width="40px" fill="#323232" font-weight="400" align="top" lineHeight="16px" font-style="" opacity="1" y="240.875" transform="rotate(0)"><tspan id="SvgjsTspan1159" dy="16" x="138.7"><tspan id="SvgjsTspan1160" style="text-decoration:;">dblp.lg</tspan></tspan></text></g><g id="SvgjsG1161" transform="translate(636,305)"><path id="SvgjsPath1162" d="M0 4Q0 0 4 0L142 0Q146 0 146 4L146 277Q146 281 142 281L4 281Q0 281 0 277Z " stroke="rgba(50,50,50,1)" stroke-width="2" fill-opacity="1" fill="#f57c00"></path><g id="SvgjsG1163"><text id="SvgjsText1164" font-family="微软雅黑" text-anchor="middle" font-size="18px" width="126px" fill="#323232" font-weight="400" align="middle" lineHeight="125%" font-style="" opacity="1" y="125.25" transform="rotate(0)"><tspan id="SvgjsTspan1165" dy="22" x="73"><tspan id="SvgjsTspan1166" style="text-decoration:;">DataProcess</tspan></tspan></text></g></g><g id="SvgjsG1167"><path id="SvgjsPath1168" d="M328.5 324L328.5 445.5L632.4 445.5 " stroke="#323232" stroke-width="2" fill="none" marker-end="url(#SvgjsMarker1169)"></path><rect id="SvgjsRect1171" width="130" height="16" x="354.7" y="437.5" fill="#ffffff"></rect><text id="SvgjsText1172" font-family="微软雅黑" text-anchor="middle" font-size="13px" width="130px" fill="#323232" font-weight="400" align="top" lineHeight="16px" font-style="" opacity="1" y="434.875" transform="rotate(0)"><tspan id="SvgjsTspan1173" dy="16" x="419.7"><tspan id="SvgjsTspan1174" style="text-decoration:;">所有元图对应子图实例</tspan></tspan></text></g><g id="SvgjsG1175"><path id="SvgjsPath1176" d="M429 251.5L709 251.5L709 299.4753424657534 " stroke="#323232" stroke-width="2" fill="none" marker-end="url(#SvgjsMarker1177)"></path><rect id="SvgjsRect1179" width="31" height="16" x="577.4876712328767" y="243.5" fill="#ffffff"></rect><text id="SvgjsText1180" font-family="微软雅黑" text-anchor="middle" font-size="13px" width="31px" fill="#323232" font-weight="400" align="top" lineHeight="16px" font-style="" opacity="1" y="240.875" transform="rotate(0)"><tspan id="SvgjsTspan1181" dy="16" x="592.9876712328767"><tspan id="SvgjsTspan1182" style="text-decoration:;">t.gdb</tspan></tspan></text></g><g id="SvgjsG1183"><path id="SvgjsPath1184" d="M783 445.5L862 445.5L862 445.5L942 445.5 " stroke="#323232" stroke-width="2" fill="none" marker-end="url(#SvgjsMarker1185)"></path><rect id="SvgjsRect1187" width="38" height="16" x="843.5000000000001" y="437.5" fill="#ffffff"></rect><text id="SvgjsText1188" font-family="微软雅黑" text-anchor="middle" font-size="13px" width="38px" fill="#323232" font-weight="400" align="top" lineHeight="16px" font-style="" opacity="1" y="434.875" transform="rotate(0)"><tspan id="SvgjsTspan1189" dy="16" x="862.5000000000001"><tspan id="SvgjsTspan1190" style="text-decoration:;">res.txt</tspan></tspan></text></g><g id="SvgjsG1191" transform="translate(229,516)"><path id="SvgjsPath1192" d="M0 4Q0 0 4 0L195 0Q199 0 199 4L199 193Q199 197 195 197L4 197Q0 197 0 193Z " stroke="rgba(50,50,50,1)" stroke-width="2" fill-opacity="1" fill="#ba68c8"></path><g id="SvgjsG1193"><text id="SvgjsText1194" font-family="微软雅黑" text-anchor="middle" font-size="18px" width="179px" fill="#323232" font-weight="400" align="middle" lineHeight="125%" font-style="" opacity="1" y="83.25" transform="rotate(0)"><tspan id="SvgjsTspan1195" dy="22" x="99.5"><tspan id="SvgjsTspan1196" style="text-decoration:;">RandomWalkSample</tspan></tspan></text></g></g><g id="SvgjsG1197"><path id="SvgjsPath1198" d="M66 614.5L147.5 614.5L147.5 614.5L225.4 614.5 " stroke="#323232" stroke-width="2" fill="none" marker-end="url(#SvgjsMarker1199)"></path><rect id="SvgjsRect1201" width="40" height="16" x="125.70000000000002" y="606.5" fill="#ffffff"></rect><text id="SvgjsText1202" font-family="微软雅黑" text-anchor="middle" font-size="13px" width="40px" fill="#323232" font-weight="400" align="top" lineHeight="16px" font-style="" opacity="1" y="603.875" transform="rotate(0)"><tspan id="SvgjsTspan1203" dy="16" x="145.70000000000002"><tspan id="SvgjsTspan1204" style="text-decoration:;">dblp.lg</tspan></tspan></text></g><g id="SvgjsG1205"><path id="SvgjsPath1206" d="M429 614.5L709 614.5L709 589.6 " stroke="#323232" stroke-width="2" fill="none" marker-end="url(#SvgjsMarker1207)"></path><rect id="SvgjsRect1209" width="82" height="16" x="540.45" y="606.5" fill="#ffffff"></rect><text id="SvgjsText1210" font-family="微软雅黑" text-anchor="middle" font-size="13px" width="82px" fill="#323232" font-weight="400" align="top" lineHeight="16px" font-style="" opacity="1" y="603.875" transform="rotate(0)"><tspan id="SvgjsTspan1211" dy="16" x="581.45"><tspan id="SvgjsTspan1212" style="text-decoration:;">pair_catch.txt</tspan></tspan></text></g></svg>